<mxfile host="app.diagrams.net" modified="2023-11-27T20:31:16.581Z" agent="Mozilla/5.0 (X11; Linux x86_64) AppleWebKit/537.36 (KHTML, like Gecko) Chrome/119.0.0.0 Safari/537.36" etag="dJv0jZ4T7KhZYZd3owjW" version="22.1.4" type="device">
  <diagram name="Страница — 1" id="haHF7bdeGVdi7AlkV74_">
    <mxGraphModel dx="890" dy="417" grid="1" gridSize="10" guides="1" tooltips="1" connect="1" arrows="1" fold="1" page="1" pageScale="1" pageWidth="827" pageHeight="1169" math="0" shadow="0">
      <root>
        <mxCell id="0" />
        <mxCell id="1" parent="0" />
        <mxCell id="2UV21pOnIYBz_H3YiKkR-2" value="" style="shape=umlLifeline;perimeter=lifelinePerimeter;whiteSpace=wrap;html=1;container=1;dropTarget=0;collapsible=0;recursiveResize=0;outlineConnect=0;portConstraint=eastwest;newEdgeStyle={&quot;curved&quot;:0,&quot;rounded&quot;:0};participant=umlActor;" vertex="1" parent="1">
          <mxGeometry x="90" y="40" width="20" height="300" as="geometry" />
        </mxCell>
        <mxCell id="2UV21pOnIYBz_H3YiKkR-3" value="Система" style="shape=umlLifeline;perimeter=lifelinePerimeter;whiteSpace=wrap;html=1;container=1;dropTarget=0;collapsible=0;recursiveResize=0;outlineConnect=0;portConstraint=eastwest;newEdgeStyle={&quot;curved&quot;:0,&quot;rounded&quot;:0};" vertex="1" parent="1">
          <mxGeometry x="270" y="38" width="100" height="300" as="geometry" />
        </mxCell>
        <mxCell id="2UV21pOnIYBz_H3YiKkR-8" value="" style="html=1;points=[[0,0,0,0,5],[0,1,0,0,-5],[1,0,0,0,5],[1,1,0,0,-5]];perimeter=orthogonalPerimeter;outlineConnect=0;targetShapes=umlLifeline;portConstraint=eastwest;newEdgeStyle={&quot;curved&quot;:0,&quot;rounded&quot;:0};" vertex="1" parent="2UV21pOnIYBz_H3YiKkR-3">
          <mxGeometry x="45" y="202" width="10" height="40" as="geometry" />
        </mxCell>
        <mxCell id="2UV21pOnIYBz_H3YiKkR-9" value="Перевірка прав доступу" style="html=1;align=left;spacingLeft=2;endArrow=block;rounded=0;edgeStyle=orthogonalEdgeStyle;curved=0;rounded=0;" edge="1" target="2UV21pOnIYBz_H3YiKkR-8" parent="2UV21pOnIYBz_H3YiKkR-3">
          <mxGeometry relative="1" as="geometry">
            <mxPoint x="50" y="182" as="sourcePoint" />
            <Array as="points">
              <mxPoint x="80" y="212" />
            </Array>
          </mxGeometry>
        </mxCell>
        <mxCell id="2UV21pOnIYBz_H3YiKkR-4" value="Лікар" style="text;html=1;align=center;verticalAlign=middle;resizable=0;points=[];autosize=1;strokeColor=none;fillColor=none;" vertex="1" parent="1">
          <mxGeometry x="75" y="8" width="50" height="30" as="geometry" />
        </mxCell>
        <mxCell id="2UV21pOnIYBz_H3YiKkR-5" value="Відкрити мед інформацію пацієнта" style="html=1;verticalAlign=bottom;endArrow=block;curved=0;rounded=0;" edge="1" parent="1" target="2UV21pOnIYBz_H3YiKkR-3">
          <mxGeometry width="80" relative="1" as="geometry">
            <mxPoint x="100" y="120" as="sourcePoint" />
            <mxPoint x="180" y="120" as="targetPoint" />
          </mxGeometry>
        </mxCell>
        <mxCell id="2UV21pOnIYBz_H3YiKkR-6" value="Мед картка пацієнта" style="html=1;verticalAlign=bottom;endArrow=open;dashed=1;endSize=8;curved=0;rounded=0;" edge="1" parent="1" target="2UV21pOnIYBz_H3YiKkR-2">
          <mxGeometry relative="1" as="geometry">
            <mxPoint x="320" y="160" as="sourcePoint" />
            <mxPoint x="240" y="160" as="targetPoint" />
          </mxGeometry>
        </mxCell>
        <mxCell id="2UV21pOnIYBz_H3YiKkR-7" value="Внести зміни у картку" style="html=1;verticalAlign=bottom;endArrow=block;curved=0;rounded=0;" edge="1" parent="1" target="2UV21pOnIYBz_H3YiKkR-3">
          <mxGeometry width="80" relative="1" as="geometry">
            <mxPoint x="100" y="200" as="sourcePoint" />
            <mxPoint x="180" y="200" as="targetPoint" />
          </mxGeometry>
        </mxCell>
        <mxCell id="2UV21pOnIYBz_H3YiKkR-10" value="Інформація об операції" style="html=1;verticalAlign=bottom;endArrow=open;dashed=1;endSize=8;curved=0;rounded=0;" edge="1" parent="1" target="2UV21pOnIYBz_H3YiKkR-2">
          <mxGeometry relative="1" as="geometry">
            <mxPoint x="320" y="300" as="sourcePoint" />
            <mxPoint x="240" y="300" as="targetPoint" />
          </mxGeometry>
        </mxCell>
      </root>
    </mxGraphModel>
  </diagram>
</mxfile>
